<svg xmlns="http://www.w3.org/2000/svg" xmlns:xlink="http://www.w3.org/1999/xlink" viewBox="0 0 330.937 303.229"><defs><linearGradient id="b"><stop offset="0" stop-color="#fff"/><stop offset="1" stop-color="#fff" stop-opacity="0"/></linearGradient><linearGradient id="a"><stop offset="0" stop-color="#a9a9a9"/><stop offset="1"/></linearGradient><linearGradient id="d" x1="120.689" x2="120.689" y1="239.618" y2="602.175" gradientUnits="userSpaceOnUse" xlink:href="#b"/><radialGradient id="c" cx="294.459" cy="208.38" r="107.581" fx="294.459" fy="208.38" gradientUnits="userSpaceOnUse" xlink:href="#a"/><filter id="e" width="1.26" height="1.294" x="-.13" y="-.147" color-interpolation-filters="sRGB"><feGaussianBlur stdDeviation="6.476"/></filter></defs><g transform="translate(-61.72 -34.87)"><path d="M70.523 34.87c-7.12 15.244-10.178 31.78-8.225 48.815 5.016 43.774 41.675 79.325 91.536 95.163-6.626-22.407-5.341-44.936 2.64-65.844-47.738-14.183-81.646-42.809-85.95-78.133zM303.779 36.214c7.12 15.243 10.178 31.78 8.225 48.815-5.016 43.774-41.675 79.324-91.536 95.163 6.626-22.408 5.341-44.937-2.64-65.845 47.738-14.182 81.646-42.808 85.95-78.133z"/><path d="m192.268 173.7 12.075-13.907c4.078-4.696 19.958 2.46 35.604 16.046l130.501 113.323c15.646 13.586 24.959 28.305 20.88 33.002l-12.075 13.905c-4.078 4.697-19.958-2.46-35.604-16.046L213.148 206.701c-15.646-13.586-24.959-28.305-20.88-33.002z"/><path fill="url(#c)" d="M402.04 208.38a107.581 107.581 0 1 1-215.162 0 107.581 107.581 0 1 1 215.163 0z" transform="translate(-107.076 -60.61)"/><path fill="url(#d)" d="M233.345 299.293a101.52 101.52 0 1 1-203.04 0 101.52 101.52 0 1 1 203.04 0z" transform="matrix(.76866 0 0 .76866 85.803 -82.536)"/><path fill="#1a1a1a" d="M215.617 149.214a27.274 27.274 0 1 1-54.548 0 27.274 27.274 0 1 1 54.548 0z"/><path fill="#fff" d="M205.03 139.764a5.556 5.556 0 1 1-11.111 0 5.556 5.556 0 1 1 11.112 0z"/><rect width="2.239" height="159.438" x="19.526" y="337.84" fill="#fff" fill-opacity=".822" filter="url(#e)" rx="2.867" ry="9.001" transform="matrix(.74467 -.84318 .84318 .74467 -35.543 -26.35)"/></g></svg>